<?xml version="1.0" encoding="utf-8"?>
<!-- Svg Vector Icons : http://www.onlinewebfonts.com/icon -->
<!DOCTYPE svg PUBLIC "-//W3C//DTD SVG 1.1//EN" "http://www.w3.org/Graphics/SVG/1.1/DTD/svg11.dtd">
<svg version="1.1" xmlns="http://www.w3.org/2000/svg" xmlns:xlink="http://www.w3.org/1999/xlink" x="0px" y="0px" viewBox="0 0 1000 1000" enable-background="new 0 0 1000 1000" xml:space="preserve">
<metadata> Svg Vector Icons : http://www.onlinewebfonts.com/icon </metadata>
<g><path d="M130.9,941c20.9,0,44.5-21.1,51.9-29.2l99.4-123.2c37.1-45.5,65-56.6,78.3-59.1l4.5-0.8h4.6h261.3c44.3,0,79.4,43.7,97.3,71.5l92.2,115.2c15.8,15.9,31.7,23.9,47.3,23.9c10.3,0,18.1-3.5,20.1-4.4c52.1-42.8,40.7-218.1,16.6-323.2c-55.2-210.9-156.7-234-160.8-234.8c-9.6-1.6-19.4-2.5-29-2.5c-55,0-94.4,27.4-100.5,31.9c-29.6,27.7-67.1,31.9-87.2,31.9c-4,0-7.3-0.2-9.6-0.3h-36.8h-1.1l-1.1-0.1c-51.3-2.3-81.4-23.1-90.1-30c-42-31.9-79.3-35.4-93.5-35.4c-2.2,0-3.8,0.1-4.1,0.1c0,0-0.1,0-0.1,0l-1,0.2l-1,0.1C147.3,386.8,95.9,616.5,95.5,618.3C46.8,857.7,100,923,107.1,930.4l2.7,2.1C119.3,940.1,126.4,941,130.9,941 M130.9,990c-16.5,0-34.1-5.2-51.6-19.1c0,0-94-57-31.8-362.4c0,0,56.9-266.8,236.3-284.4c0,0,4-0.6,11-0.6c21.2,0,70.4,5.1,123.7,45.9c0,0,20.6,17.7,62,19.6h38.9c0,0,2.8,0.3,7.4,0.3c12.3,0,37.3-2.4,55-19.9c0,0,52.8-43.9,132.6-43.9c11.9,0,24.3,0.9,37.3,3.2c0,0,134.3,20.1,199.9,270.6c0,0,68.8,297.7-36.4,376.2c0,0-19.2,12.8-47.8,12.8c-23.5,0-53.3-8.7-84-40.3l-95.4-119.3c0,0-31.9-51-57.3-51H369.5c0,0-18,3.4-49.4,41.9l-99.9,123.9C220.2,943.4,180.3,990,130.9,990L130.9,990L130.9,990z"/><path d="M466.1,55.3L484.7,10c3,1.2,173.3,71.7,179.5,149.1c1.9,23.5-11.2,47.5-48.6,70.6L590,188c19.2-11.8,25.7-21.4,25.4-24.9c-2-24.6-74.5-76.9-149.2-107.7L466.1,55.3 M599.1,183.6l16.5,46.1c0,0-132.4,47.6-87.2,175.7l-46.2,16.3C437.2,293.9,527.4,209.3,599.1,183.6 M615.6,229.7L590,188L615.6,229.7l-16.5-46.1L615.6,229.7L615.6,229.7L615.6,229.7L615.6,229.7L615.6,229.7L615.6,229.7L615.6,229.7z"/><path d="M712.5,679.7c9,0,16.3-7.3,16.3-16.3c0-9-7.3-16.3-16.3-16.3c-9,0-16.3,7.3-16.3,16.3C696.2,672.4,703.5,679.7,712.5,679.7 M794.2,598c9,0,16.3-7.3,16.3-16.3c0-9-7.3-16.3-16.3-16.3s-16.3,7.3-16.3,16.3C777.8,590.7,785.2,598,794.2,598 M630.8,598c9,0,16.3-7.3,16.3-16.3c0-9-7.3-16.3-16.3-16.3s-16.3,7.3-16.3,16.3C614.5,590.7,621.8,598,630.8,598 M712.5,516.4c9,0,16.3-7.3,16.3-16.3c0-9-7.3-16.3-16.3-16.3c-9,0-16.3,7.3-16.3,16.3C696.2,509,703.5,516.4,712.5,516.4 M712.5,712.3c-27,0-49-21.9-49-49c0-27.1,21.9-49,49-49c27.1,0,49,21.9,49,49C761.5,690.4,739.6,712.3,712.5,712.3L712.5,712.3L712.5,712.3z M794.2,630.7c-27.1,0-49-21.9-49-49c0-27.1,21.9-49,49-49c27.1,0,49,21.9,49,49C843.2,608.8,821.2,630.7,794.2,630.7L794.2,630.7L794.2,630.7z M630.8,630.7c-27.1,0-49-21.9-49-49c0-27.1,21.9-49,49-49c27.1,0,49,21.9,49,49C679.8,608.8,657.9,630.7,630.8,630.7L630.8,630.7L630.8,630.7z M712.5,549c-27,0-49-22-49-49c0-27.1,21.9-49,49-49c27.1,0,49,21.9,49,49C761.5,527.1,739.6,549,712.5,549L712.5,549L712.5,549z"/><path d="M312.4,679.7c-13.5,0-24.5-11-24.5-24.5V491.9c0-13.5,11-24.5,24.5-24.5c13.5,0,24.5,11,24.5,24.5v163.3C336.8,668.7,325.9,679.7,312.4,679.7L312.4,679.7z"/><path d="M394,598H230.7c-13.5,0-24.5-11-24.5-24.5c0-13.5,11-24.5,24.5-24.5H394c13.5,0,24.5,11,24.5,24.5C418.5,587,407.5,598,394,598L394,598z"/></g>
</svg>